<svg width="20" height="16" viewBox="0 0 20 16" fill="none" xmlns="http://www.w3.org/2000/svg">
<path d="M18.5713 13.9285C18.5713 14.1182 18.404 14.2857 18.2143 14.2857H1.7857C1.59597 14.2857 1.42857 14.1182 1.42857 13.9285V5.35714C1.66294 5.62499 1.91964 5.87053 2.19865 6.09374C3.79463 7.32142 5.40178 8.57144 6.95311 9.86611C7.79016 10.5692 8.82811 11.4285 9.98881 11.4285H10H10.0111C11.1719 11.4285 12.2097 10.5692 13.0468 9.86611C14.5981 8.57144 16.2053 7.32142 17.8013 6.09374C18.0803 5.87053 18.3371 5.62499 18.5713 5.35714V13.9285ZM18.5713 2.19866C18.5713 3.14732 17.6563 4.38615 16.9308 4.95535C15.4352 6.12722 13.9397 7.31026 12.4553 8.49331C11.8639 8.97318 10.7924 9.99997 10.0111 9.99997H10H9.98881C9.20757 9.99997 8.13615 8.97318 7.54463 8.49331C6.06026 7.31026 4.56473 6.12722 3.06918 4.95535C2.06473 4.16294 1.42857 3.05804 1.42857 1.78572C1.42857 1.59598 1.59597 1.42857 1.7857 1.42857H18.2143C18.6384 1.42857 18.5713 1.91964 18.5713 2.19866ZM20 1.78572C20 0.803572 19.1964 0 18.2143 0H1.7857C0.803572 0 0 0.803572 0 1.78572V13.9285C0 14.9106 0.803572 15.7142 1.7857 15.7142H18.2143C19.1964 15.7142 20 14.9106 20 13.9285V1.78572Z" fill="#3E9CDC"/>
</svg>
