<svg width="20" height="20" viewBox="0 0 20 20" fill="none" xmlns="http://www.w3.org/2000/svg">
<mask id="mask0_275_19" style="mask-type:luminance" maskUnits="userSpaceOnUse" x="0" y="0" width="20" height="20">
<path d="M20 0H0V20H20V0Z" fill="white"/>
</mask>
<g mask="url(#mask0_275_19)">
<path d="M16.4119 13.4557C16.472 13.8434 16.3451 14.0075 16.2168 14.0075C16.0886 14.0075 15.9029 13.8498 15.6958 13.5371C15.4888 13.2244 15.418 12.8768 15.5182 12.6984C15.5559 12.6367 15.6168 12.5913 15.6882 12.5718C15.7596 12.5523 15.836 12.5602 15.9016 12.5938C16.2422 12.7178 16.3758 13.2231 16.4119 13.4557ZM14.5242 14.306C14.9344 14.6407 15.0586 15.0387 14.8422 15.3191C14.7763 15.3975 14.6923 15.4599 14.5969 15.5012C14.5015 15.5425 14.3975 15.5615 14.2931 15.5569C14.0643 15.5572 13.8426 15.48 13.6666 15.3385C13.2952 15.0245 13.1857 14.514 13.4288 14.2246C13.4825 14.1652 13.5495 14.1184 13.6248 14.088C13.7001 14.0575 13.7815 14.0441 13.863 14.0488C14.1078 14.0567 14.3419 14.1477 14.5242 14.306ZM13.8403 17.5366C15.6023 17.5366 17.514 18.1207 19.6314 19.935C19.8425 20.1159 20.1244 19.891 19.94 19.6649C17.86 17.1257 15.9323 16.6411 14.0179 16.2327C11.6721 15.7313 10.4644 14.4533 9.61876 13.0512C9.45173 12.7721 9.37558 12.8212 9.36089 13.1804C9.34685 13.713 9.38847 14.2455 9.48513 14.7699C9.39028 14.7699 9.29409 14.7699 9.19924 14.7699C7.99704 14.7699 6.82185 14.4251 5.82226 13.779C4.82266 13.1329 4.04358 12.2146 3.58352 11.1403C3.12346 10.0659 3.00308 8.88373 3.23762 7.74318C3.47216 6.60263 4.05107 5.55497 4.90115 4.73268C5.75123 3.91039 6.8343 3.3504 8.0134 3.12354C9.1925 2.89667 10.4147 3.0131 11.5254 3.45812C12.6361 3.90314 13.5854 4.65676 14.2533 5.62367C14.9212 6.59058 15.2777 7.72736 15.2777 8.89025C15.2783 9.11864 15.2654 9.34688 15.239 9.57384C14.5986 9.49585 13.9515 9.48415 13.3086 9.53896C13.0774 9.55834 13.1108 9.66818 13.2845 9.69273C15.2884 10.0429 16.6751 11.2434 16.9903 13.4337C16.9915 13.4448 16.9962 13.4553 17.0038 13.4636C17.0115 13.472 17.0216 13.4778 17.0329 13.4802C17.0441 13.4827 17.0559 13.4816 17.0665 13.4772C17.0771 13.4728 17.086 13.4653 17.0919 13.4557C18.1343 11.7701 18.5707 9.79826 18.333 7.84762C18.0953 5.89697 17.1969 4.07726 15.7779 2.67233C14.3589 1.2674 12.4991 0.356234 10.4886 0.0809691C8.47805 -0.194296 6.4299 0.181813 4.66356 1.15063C2.89723 2.11945 1.51203 3.6265 0.724021 5.43671C-0.0639809 7.24692 -0.210478 9.25851 0.307383 11.1577C0.825241 13.0569 1.97834 14.7369 3.58682 15.9357C5.1953 17.1345 7.16871 17.7846 9.19924 17.7847C10.5419 17.7886 11.8791 17.5353 13.8403 17.5353V17.5366Z" fill="#3E9CDC"/>
</g>
</svg>
