<svg width="16" height="20" viewBox="0 0 16 20" fill="none" xmlns="http://www.w3.org/2000/svg">
<path d="M15.9972 13.8751C15.9972 14.8689 15.8093 15.742 15.4332 16.4942C15.0571 17.2464 14.5511 17.8687 13.9153 18.3613C13.1631 18.9522 12.3348 19.3731 11.4304 19.6239C10.535 19.8745 9.39325 20 8.00535 20H0V0H7.06511C8.53362 0 9.64403 0.0582106 10.3962 0.174617C11.1573 0.282067 11.8692 0.514895 12.5318 0.873068C13.2482 1.25812 13.781 1.773 14.1302 2.41772C14.4884 3.06246 14.6675 3.80568 14.6675 4.64741C14.6675 5.62345 14.4213 6.49204 13.9288 7.25318C13.4452 8.0143 12.7736 8.57396 11.9139 8.93215V9.0396C13.1497 9.29928 14.1392 9.83209 14.8824 10.638C15.6257 11.435 15.9972 12.5139 15.9972 13.8751ZM9.5635 5.65479C9.5635 5.33243 9.47837 5.0011 9.30828 4.66084C9.14705 4.32056 8.89183 4.07432 8.54263 3.92209C8.21131 3.77882 7.8173 3.7027 7.36062 3.69376C6.91289 3.67584 6.2413 3.66689 5.34584 3.66689H4.99663V7.8979H5.62791C6.48755 7.8979 7.0875 7.88894 7.42778 7.87103C7.777 7.85314 8.1352 7.7591 8.50229 7.58896C8.90528 7.40093 9.18281 7.14124 9.33503 6.80993C9.48739 6.47861 9.5635 6.09357 9.5635 5.65479ZM10.826 13.781C10.826 13.1631 10.7007 12.6796 10.4499 12.3304C10.1992 11.9812 9.82314 11.7169 9.32173 11.538C9.01715 11.4215 8.59627 11.3589 8.05907 11.3499C7.53075 11.332 6.81887 11.323 5.92341 11.323H4.99663V16.3331H5.26526C6.57262 16.3331 7.47702 16.3241 7.97848 16.3062C8.47997 16.2884 8.99041 16.1675 9.5097 15.9436C9.96634 15.7466 10.2977 15.4601 10.5037 15.084C10.7185 14.6988 10.826 14.2645 10.826 13.781Z" fill="#3E9CDC"/>
</svg>
