<svg width="21" height="20" viewBox="0 0 21 20" fill="none" xmlns="http://www.w3.org/2000/svg">
<path d="M10.7979 0C12.3582 0 13.8427 0.357482 15.175 0.996954C15.3838 1.09121 15.5942 1.20402 15.8024 1.31693L14.8889 2.12605L13.5196 0.715065L11.16 2.78427L9.77045 1.29789L5.43152 5.15461L8.20944 8.18346L7.12498 9.12385L9.86568 12.1527L8.78112 13.0927L12.7015 17.4008L15.0218 15.2938L17.04 17.5519C16.6401 17.8529 16.2024 18.1545 15.7272 18.4174C14.2806 19.2263 12.6057 19.6957 10.8171 19.6957C5.31693 19.6957 0.845553 15.2757 0.845553 9.83939C0.82613 4.43984 5.2983 0 10.7979 0ZM8.9707 9.23696L11.3495 7.12986L13.4814 9.48134L11.102 11.5882L8.9707 9.23696ZM10.6649 13.3005L13.0243 11.1748L15.175 13.5261L12.796 15.6332L10.6649 13.3005ZM7.27804 5.23011L9.65617 3.12301L11.7875 5.47448L9.40857 7.58149L7.27804 5.23011ZM11.635 4.101L13.4049 2.52085L15.0039 4.27047L13.234 5.86929L11.635 4.101ZM14.7944 11.3437L16.5637 9.76352L18.1626 11.5314L16.3926 13.1126L14.7944 11.3437ZM16.3546 14.8997L18.1246 13.3191L19.7222 15.0687L17.9529 16.6673L16.3546 14.8997ZM17.0779 6.77237L18.2576 5.71876L19.323 6.88558L18.1434 7.93878L17.0779 6.77237ZM15.5554 3.29208L16.7352 2.22001L17.8013 3.40499L16.6207 4.45849L15.5554 3.29208ZM18.5811 10.253L19.7608 9.19945L20.8455 10.3659L19.647 11.4191L18.5811 10.253ZM13.2718 7.63795L15.0419 6.0577L16.6401 7.80693L14.8708 9.38748L13.2718 7.63795Z" fill="#3E9CDC"/>
</svg>
