<svg width="16" height="20" viewBox="0 0 16 20" fill="none" xmlns="http://www.w3.org/2000/svg">
<path fill-rule="evenodd" clip-rule="evenodd" d="M0.00022828 9.92086C0.00022828 8.79784 0.0951771 8.08514 2.44045 6.34906C4.38208 4.91172 10.6057 0 10.6057 0V8.19922H15.3387V20H1.47849C0.665464 20 0 19.34 0 18.5338L0.00022828 9.92086Z" fill="#3E9CDC"/>
<path fill-rule="evenodd" clip-rule="evenodd" d="M10.6057 8.19922V12.95L1.90866 18.8257L12.9046 15.2778V8.19922H10.6057Z" fill="black" fill-opacity="0.2"/>
<path fill-rule="evenodd" clip-rule="evenodd" d="M6.63131 7.95356C7.13994 7.35259 7.88276 7.14047 8.29051 7.47982C8.69838 7.81925 8.6169 8.58163 8.10826 9.1826C7.59997 9.78351 6.85694 9.9954 6.44908 9.65597C6.04122 9.31662 6.12298 8.55447 6.63131 7.95356Z" fill="#231F20"/>
</svg>
